<svg xmlns="http://www.w3.org/2000/svg" width="168" height="53" viewBox="0 0 168 53">
  <g id="Group_2" data-name="Group 2" transform="translate(-1152 -34)">
    <rect id="Rectangle_1" data-name="Rectangle 1" width="168" height="53" rx="4" transform="translate(1152 34)" fill="#cc6e38"/>
    <text id="CONTACT_US" data-name="CONTACT US" transform="translate(1204 66)" fill="#f0ede7" font-size="14" font-family="Inter-SemiBold, Inter" font-weight="600"><tspan x="0" y="0">CONTACT US</tspan></text>
    <path id="phone-flip" d="M1.22,1.218l.7-.609a2.071,2.071,0,0,1,2.929,0c.02.02,1.257,1.632,1.257,1.632a2.077,2.077,0,0,1,0,2.862l-.776.976a8.556,8.556,0,0,0,4.634,4.648l.976-.782a2.064,2.064,0,0,1,2.862,0s1.612,1.237,1.632,1.257a2.061,2.061,0,0,1,.033,2.9l-.669.769a4.1,4.1,0,0,1-2.929,1.19C6.764,16.057,0,9.283,0,4.18A4.109,4.109,0,0,1,1.22,1.225Zm10.653,13.5a2.721,2.721,0,0,0,1.946-.769l.669-.769a.736.736,0,0,0,.027-1.01s-1.6-1.23-1.618-1.251a.756.756,0,0,0-1.037,0c-.02.02-1.364,1.1-1.364,1.1a.664.664,0,0,1-.655.1,10.021,10.021,0,0,1-5.9-5.892.675.675,0,0,1,.1-.669S5.119,4.2,5.132,4.187a.731.731,0,0,0,0-1.037c-.02-.02-1.251-1.618-1.251-1.618a.748.748,0,0,0-1.043.053l-.7.609a2.774,2.774,0,0,0-.8,1.979c0,4.654,6.533,10.539,10.539,10.539Z" transform="translate(1176.004 51.998)" fill="#fff"/>
  </g>
</svg>
