<svg id="envelope_1_" data-name="envelope (1)" xmlns="http://www.w3.org/2000/svg" width="19.111" height="17.519" viewBox="0 0 19.111 17.519">
  <path id="Path_4" data-name="Path 4" d="M19.075,5.542l-6.7,6.7a3.987,3.987,0,0,1-5.631,0l-6.7-6.7C.025,5.668,0,5.782,0,5.907v9.556a3.986,3.986,0,0,0,3.981,3.981H15.13a3.986,3.986,0,0,0,3.981-3.981V5.907C19.111,5.782,19.086,5.668,19.075,5.542Z" transform="translate(0 -1.925)" fill="#cc6e38"/>
  <path id="Path_5" data-name="Path 5" d="M11.4,10.194,18.67,2.92A3.97,3.97,0,0,0,15.281,1H4.133A3.97,3.97,0,0,0,.744,2.92l7.273,7.274a2.394,2.394,0,0,0,3.379,0Z" transform="translate(-0.152 -1)" fill="#cc6e38"/>
</svg>
