<svg xmlns="http://www.w3.org/2000/svg" width="80.542" height="64.249" viewBox="0 0 80.542 64.249">
  <g id="Group_45078" data-name="Group 45078" transform="translate(-1166.459 -1278)">
    <circle id="Ellipse_227" data-name="Ellipse 227" cx="32" cy="32" r="32" transform="translate(1183 1278)" fill="#f0ede7"/>
    <g id="Group_34930" data-name="Group 34930" transform="translate(0)">
      <path id="feedback-review" d="M19.229,9.245l2.564,2.088-1.013,3.046a2.484,2.484,0,0,0,3.752,2.807l2.991-2,3.048,1.987a2.482,2.482,0,0,0,3.7-2.881l-1.043-2.97,2.553-2.081a2.483,2.483,0,0,0-1.6-4.382h-3.2L29.828,1.62a2.482,2.482,0,0,0-4.659.011L24.021,4.854h-3.2a2.48,2.48,0,0,0-1.588,4.389Zm1.588-2.1h4.011a1.147,1.147,0,0,0,1.079-.761L27.328,2.4h.344l1.421,3.983a1.147,1.147,0,0,0,1.079.761h4.011l.138.325-3.163,2.578a1.145,1.145,0,0,0-.358,1.267l1.309,3.731-.291.2-3.681-2.4a1.149,1.149,0,0,0-1.263.007l-3.619,2.422a.188.188,0,0,1-.108.032l-.188-.231L24.218,11.3a1.146,1.146,0,0,0-.364-1.249L20.675,7.469l.142-.321Zm34.034,5.968a2.491,2.491,0,0,0-2.333-1.632h-3.2L48.162,8.246a2.482,2.482,0,0,0-4.659.011l-1.148,3.222h-3.2a2.482,2.482,0,0,0-1.588,4.389l2.564,2.088L39.114,21a2.486,2.486,0,0,0,.88,2.732,2.451,2.451,0,0,0,1.49.5,2.481,2.481,0,0,0,1.382-.419l2.991-2L48.9,23.793a2.482,2.482,0,0,0,3.7-2.881l-1.043-2.97,2.553-2.081a2.487,2.487,0,0,0,.733-2.75Zm-5.358,3.561a1.145,1.145,0,0,0-.358,1.267l1.309,3.731-.291.2-3.681-2.4a1.153,1.153,0,0,0-1.263.007l-3.619,2.422a.188.188,0,0,1-.108.032l-.188-.231,1.258-3.779a1.146,1.146,0,0,0-.364-1.249l-3.179-2.585.142-.321h4.011a1.147,1.147,0,0,0,1.079-.761l1.421-3.983h.344l1.421,3.983a1.147,1.147,0,0,0,1.079.761h4.011l.138.325-3.163,2.578Zm-37.259,7.12a2.482,2.482,0,0,0,3.7-2.881L14.9,17.944l2.553-2.081a2.483,2.483,0,0,0-1.6-4.382h-3.2L11.492,8.246a2.482,2.482,0,0,0-4.659.011L5.685,11.479h-3.2A2.482,2.482,0,0,0,.893,15.868l2.564,2.088L2.445,21a2.486,2.486,0,0,0,.88,2.732,2.451,2.451,0,0,0,1.49.5A2.481,2.481,0,0,0,6.2,23.809l2.991-2,3.048,1.987ZM8.541,19.484,4.922,21.907a.188.188,0,0,1-.108.032l-.188-.231,1.258-3.779a1.146,1.146,0,0,0-.364-1.249L2.342,14.094l.142-.321H6.494a1.147,1.147,0,0,0,1.079-.761L8.994,9.029h.344l1.421,3.983a1.147,1.147,0,0,0,1.079.761h4.011l.138.325-3.163,2.578a1.145,1.145,0,0,0-.358,1.267l1.309,3.731-.291.2L9.8,19.48a1.153,1.153,0,0,0-1.263.007Z" transform="translate(1166.999 1286.5)" fill="#cc6e38" stroke="#cc6e38" stroke-width="1"/>
      <path id="feedback-review-2" data-name="feedback-review" d="M38.959,32.084H29.372l1.345-7.631a5.644,5.644,0,0,0,0-1.221A3.475,3.475,0,0,0,28.9,20.974a3.524,3.524,0,0,0-2.936-.046,3.409,3.409,0,0,0-1.556,1.632L19.38,32.082H16.044a6.884,6.884,0,0,0-6.875,6.875v9.167A6.884,6.884,0,0,0,16.044,55h19.2a9.2,9.2,0,0,0,8.99-7.37L45.7,40.3a6.876,6.876,0,0,0-6.742-8.223ZM11.46,48.126V38.959a4.588,4.588,0,0,1,4.583-4.583h2.292V52.71H16.044A4.588,4.588,0,0,1,11.46,48.126Zm31.992-8.269-1.464,7.324a6.9,6.9,0,0,1-6.742,5.528H20.627v-18.7a2.273,2.273,0,0,0,.779-.853C26.664,23.2,27.6,22.885,27.9,23.032a1.213,1.213,0,0,1,.566.667L27.12,31.683a2.29,2.29,0,0,0,2.255,2.693h9.586a4.585,4.585,0,0,1,4.494,5.482Z" transform="translate(1166.999 1286.5)" fill="#cc6e38" stroke="#cc6e38" stroke-width="1.5"/>
    </g>
  </g>
</svg>
