<svg xmlns="http://www.w3.org/2000/svg" width="80.227" height="64.9" viewBox="0 0 80.227 64.9">
  <g id="Group_45088" data-name="Group 45088" transform="translate(-538.773 -3092)">
    <circle id="Ellipse_224" data-name="Ellipse 224" cx="32" cy="32" r="32" transform="translate(555 3092)" fill="#f0ede7"/>
    <g id="Hand_Sprinkle" data-name="Hand Sprinkle" transform="translate(534.389 3094.219)">
      <path id="Path_32680" data-name="Path 32680" d="M62.707,25.032c-1.915-6.265-1.954-7.4-3.729-8.711L49.99,9.669A9.035,9.035,0,0,0,44.673,7.9h0c-16-.658-26.09,0-28.673,0a2.156,2.156,0,0,0-2.081-1.618H7.442A2.161,2.161,0,0,0,5.284,8.439V27.411a2.161,2.161,0,0,0,2.158,2.158h6.474A2.155,2.155,0,0,0,15.983,28h3.341c1.346,0,1.592.729,3.62,2.442,4.365,3.689,8.294,4.778,12.092,5.832,6.088,1.691,6.775,2.716,13.9,4.456a2.674,2.674,0,0,0,3.3-2.717q-.032-.642-.118-1.24a2.179,2.179,0,0,0,1.936-.425l6.982-5.755a5.207,5.207,0,0,0,1.672-5.557ZM7.442,27.411V8.439h6.474V27.411Zm42.375,4.46c-1.612-1.564-3.277-1.644-5.824-3.064-1.082-.6-3.784-2.106-3.826-3.454a1.5,1.5,0,0,1,.424-1.088l3.5-3.581a.722.722,0,0,1,.514-.223.755.755,0,0,1,.118.011,27.521,27.521,0,0,1,5.233,1.814,8.148,8.148,0,0,1,4,4.109,6.747,6.747,0,0,0-4.142,5.477Zm9.846-2.947-7.006,5.751a4.232,4.232,0,0,1-.7-2.554,4.643,4.643,0,0,1,3.2-3.884,1.682,1.682,0,0,0,1-2.172,10.28,10.28,0,0,0-5.331-5.755,29.137,29.137,0,0,0-5.717-1.962,2.843,2.843,0,0,0-2.56.826l-3.5,3.581a3.67,3.67,0,0,0-1.037,2.664c.076,2.449,2.794,4.079,4.931,5.272,2.775,1.548,4.28,1.55,5.536,2.9a6.965,6.965,0,0,1,1.6,4.529.516.516,0,0,1-.634.514c-7.006-1.71-7.521-2.683-13.831-4.439-3.575-.992-7.273-2.017-11.277-5.4-1.866-1.576-2.667-2.952-5.013-2.952H16.074V10.058c3.48,0,10.108-.653,28.553,0A6.9,6.9,0,0,1,48.705,11.4l8.989,6.652c1.08.8.988,1.19,2.949,7.607a3.061,3.061,0,0,1-.981,3.262Z" fill="#cc6e38" stroke="#cc6e38" stroke-width="1.8"/>
      <circle id="Ellipse_236" data-name="Ellipse 236" cx="1.079" cy="1.079" r="1.079" transform="translate(53.179 40.538)" fill="#cc6e38" stroke="#cc6e38" stroke-width="1.8"/>
      <circle id="Ellipse_237" data-name="Ellipse 237" cx="1.079" cy="1.079" r="1.079" transform="translate(48.93 46.068)" fill="#cc6e38" stroke="#cc6e38" stroke-width="1.8"/>
      <circle id="Ellipse_238" data-name="Ellipse 238" cx="1.079" cy="1.079" r="1.079" transform="translate(55.606 47.147)" fill="#cc6e38" stroke="#cc6e38" stroke-width="1.8"/>
      <circle id="Ellipse_239" data-name="Ellipse 239" cx="1.079" cy="1.079" r="1.079" transform="translate(51.469 51.598)" fill="#cc6e38" stroke="#cc6e38" stroke-width="1.8"/>
      <circle id="Ellipse_240" data-name="Ellipse 240" cx="1.079" cy="1.079" r="1.079" transform="translate(47.176 56.521)" fill="#cc6e38" stroke="#cc6e38" stroke-width="1.8"/>
      <circle id="Ellipse_241" data-name="Ellipse 241" cx="1.079" cy="1.079" r="1.079" transform="translate(52.548 59.623)" fill="#cc6e38" stroke="#cc6e38" stroke-width="1.8"/>
      <circle id="Ellipse_242" data-name="Ellipse 242" cx="1.079" cy="1.079" r="1.079" transform="translate(57.403 53.756)" fill="#cc6e38" stroke="#cc6e38" stroke-width="1.8"/>
    </g>
  </g>
</svg>
