<svg xmlns="http://www.w3.org/2000/svg" width="78.589" height="64.7" viewBox="0 0 78.589 64.7">
  <g id="Group_34959" data-name="Group 34959" transform="translate(-1168.411 -1278)">
    <circle id="Ellipse_227" data-name="Ellipse 227" cx="32" cy="32" r="32" transform="translate(1183 1278)" fill="#f0ede7"/>
    <g id="heart_1_" data-name="heart (1)" transform="translate(1169.111 1238.692)">
      <g id="Group_34984" data-name="Group 34984" transform="translate(0 56.4)">
        <path id="Path_32684" data-name="Path 32684" d="M62.991,78.879H57.569c2.254-5.117,2.01-9.26,1.157-12.062A14.5,14.5,0,0,0,45.02,56.4a17.138,17.138,0,0,0-5.909,1.1,30.649,30.649,0,0,0-6.823,3.411A29.248,29.248,0,0,0,25.464,57.5a17.4,17.4,0,0,0-5.909-1.1A14.5,14.5,0,0,0,5.848,66.817C5,69.8,4.691,74.31,7.554,79.976H.975a.975.975,0,0,0,0,1.949H8.712a12.861,12.861,0,0,0,1.1,1.645c6.336,9.138,20.1,19.068,22.6,19.677v.061a.189.189,0,0,0,.122-.061h.183v-.061c2.132-1.036,15.352-9.564,22.3-19.677a22.412,22.412,0,0,0,1.706-2.741h6.4a.962.962,0,0,0,.975-.975A1.023,1.023,0,0,0,62.991,78.879Zm-9.747,3.594c-6.457,9.443-18.337,17.057-20.9,18.7-2.62-1.645-14.438-9.321-20.956-18.7l-.366-.548h8.955a1,1,0,0,0,.914-.548l4.082-8.041,6.4,16.387a1,1,0,0,0,.914.609h.061a.97.97,0,0,0,.914-.731l5.6-19.19L41.852,80.1a.993.993,0,0,0,.792.67,1.055,1.055,0,0,0,.975-.426l2.376-3.472L48,80.281a.972.972,0,0,0,.853.487H54.34C53.975,81.377,53.609,81.925,53.244,82.474Zm2.193-3.594h-5.97l-2.5-4.264a.972.972,0,0,0-.853-.487.922.922,0,0,0-.853.426L43.192,77.6,39.841,66.7a1.13,1.13,0,0,0-.975-.731,1.043,1.043,0,0,0-.975.731L32.227,86.251,26.074,70.533a.916.916,0,0,0-.853-.609.945.945,0,0,0-.914.548l-4.813,9.443H9.808C7.371,75.468,6.7,71.2,7.8,67.366A12.446,12.446,0,0,1,19.616,58.41a16.206,16.206,0,0,1,5.239.975,29.616,29.616,0,0,1,6.884,3.533.926.926,0,0,0,1.218,0,26.559,26.559,0,0,1,6.884-3.533,14.727,14.727,0,0,1,5.239-.975A12.506,12.506,0,0,1,56.9,67.366C57.935,70.9,57.386,74.8,55.437,78.879Z" transform="translate(0 -56.4)" fill="#cc6e38" stroke="#cc6e38" stroke-width="1.4"/>
      </g>
    </g>
  </g>
</svg>
