<svg xmlns="http://www.w3.org/2000/svg" width="78.476" height="64.8" viewBox="0 0 78.476 64.8">
  <g id="Group_45075" data-name="Group 45075" transform="translate(-533.525 -1270)">
    <circle id="Ellipse_224" data-name="Ellipse 224" cx="32" cy="32" r="32" transform="translate(548 1270)" fill="#f0ede7"/>
    <path id="diamond" d="M53.858,14.319,45.4,2.485A5.946,5.946,0,0,0,40.576,0H14.384A5.946,5.946,0,0,0,9.556,2.485L1.1,14.319a5.959,5.959,0,0,0,.16,7.111L27.48,55,53.695,21.435a5.962,5.962,0,0,0,.163-7.116ZM43.542,3.818S52.163,15.9,52.234,16.032H38.6L33.874,2.29h6.7a3.648,3.648,0,0,1,2.966,1.528ZM18.779,16.032,23.508,2.29h7.943l4.73,13.742h-17.4Zm17.466,2.29L27.48,47.353l-8.765-29.03H36.243ZM11.418,3.818A3.648,3.648,0,0,1,14.384,2.29h6.7l-4.73,13.742H2.728C2.8,15.9,11.42,3.818,11.42,3.818Zm-9.086,14.5H16.321l9.191,30.438L3.065,20.017a3.592,3.592,0,0,1-.731-1.695ZM29.445,48.763l9.191-30.441H52.625a3.622,3.622,0,0,1-.733,1.7L29.445,48.761Z" transform="translate(534.497 1278.5)" fill="#cc6e38" stroke="#cc6e38" stroke-width="1.6"/>
  </g>
</svg>
