<svg id="envelope_1_" data-name="envelope (1)" xmlns="http://www.w3.org/2000/svg" width="22.136" height="20.291" viewBox="0 0 22.136 20.291">
  <path id="Path_4" data-name="Path 4" d="M22.093,5.542l-7.764,7.764a4.618,4.618,0,0,1-6.523,0L.042,5.542C.03,5.688,0,5.82,0,5.964V17.032a4.617,4.617,0,0,0,4.612,4.612H17.524a4.617,4.617,0,0,0,4.612-4.612V5.964C22.136,5.82,22.106,5.688,22.093,5.542Z" transform="translate(0 -1.353)" fill="#f0ede7"/>
  <path id="Path_5" data-name="Path 5" d="M13.083,11.649l8.424-8.425A4.6,4.6,0,0,0,17.582,1H4.669A4.6,4.6,0,0,0,.744,3.224l8.424,8.425a2.773,2.773,0,0,0,3.914,0Z" transform="translate(-0.058 -1)" fill="#f0ede7"/>
</svg>
