<svg xmlns="http://www.w3.org/2000/svg" width="85.166" height="71" viewBox="0 0 85.166 71">
  <g id="Group_45079" data-name="Group 45079" transform="translate(-120 -2430)">
    <circle id="Ellipse_6" data-name="Ellipse 6" cx="35.5" cy="35.5" r="35.5" transform="translate(120 2430)" fill="#452a3b"/>
    <g id="script" transform="translate(128.833 2387.111)">
      <path id="Path_32635" data-name="Path 32635" d="M141.786,67.7h46.243a6.415,6.415,0,0,0-6.308-6.685H135.478A6.415,6.415,0,0,1,141.786,67.7Z" transform="translate(-115.28 -6.386)" fill="#e2d9c5"/>
      <path id="Path_32636" data-name="Path 32636" d="M139.321,67.324a6.309,6.309,0,0,1,6.309-6.309H99.387a6.309,6.309,0,0,0-6.309,6.309v51.831h39.934a6.309,6.309,0,0,0,6.309-6.309Z" transform="translate(-79.201 -6.386)" fill="#f2ebda"/>
      <g id="Group_34940" data-name="Group 34940" transform="translate(1.119 54.629)">
        <path id="Path_32637" data-name="Path 32637" d="M322.161,61.015a6.309,6.309,0,0,0-6.309,6.309v45.522a6.309,6.309,0,0,1-6.31,6.309H317.2a6.309,6.309,0,0,0,6.309-6.309V67.324a6.309,6.309,0,0,1,6.31-6.309Z" transform="translate(-264.511 -61.015)" fill="#e2d9c5"/>
        <path id="Path_32638" data-name="Path 32638" d="M53.748,406.146H7.505a6.415,6.415,0,0,0,6.308,6.685H60.056A6.415,6.415,0,0,1,53.748,406.146Z" transform="translate(-7.505 -354.69)" fill="#e2d9c5"/>
      </g>
      <path id="Path_32639" data-name="Path 32639" d="M289.2,211.783c1.3-4.038,2.467-8.162,5.226-11.312,6.027-6.88,18.109-8.9,26.873-8.676a77.94,77.94,0,0,0-7.9,7.552c-3.106,3.361-9.882,7.833-13.143,8.836C295.173,209.745,292.823,210.006,289.2,211.783Z" transform="translate(-246.082 -117.654)" fill="#cc6e38"/>
      <path id="Path_32640" data-name="Path 32640" d="M289.2,211.866c1.3-4.038,23.335-20.214,32.1-19.988a77.938,77.938,0,0,0-7.9,7.552c-3.106,3.361-9.882,7.833-13.143,8.836C295.173,209.828,292.823,210.089,289.2,211.866Z" transform="translate(-246.082 -117.736)" fill="#cc6e38"/>
      <path id="Path_32641" data-name="Path 32641" d="M218.771,131.415a1.119,1.119,0,0,0-1.119-1.119H193.833a1.119,1.119,0,0,0,0,2.238h23.819A1.119,1.119,0,0,0,218.771,131.415Z" transform="translate(-163.983 -65.338)" fill="#452a3b"/>
      <path id="Path_32642" data-name="Path 32642" d="M133.6,132.534h3.773a1.119,1.119,0,0,0,0-2.238H133.6a1.119,1.119,0,1,0,0,2.238Z" transform="translate(-112.734 -65.338)" fill="#452a3b"/>
      <path id="Path_32643" data-name="Path 32643" d="M133.6,360.341a1.119,1.119,0,1,0,0,2.238h11.7a1.119,1.119,0,1,0,0-2.238Z" transform="translate(-112.734 -261.086)" fill="#452a3b"/>
      <path id="Path_32644" data-name="Path 32644" d="M151.123,284.779A1.119,1.119,0,0,0,150,283.66H133.6a1.119,1.119,0,1,0,0,2.238H150A1.119,1.119,0,0,0,151.123,284.779Z" transform="translate(-112.734 -195.837)" fill="#452a3b"/>
      <path id="Path_32645" data-name="Path 32645" d="M159.106,208.1a1.119,1.119,0,0,0-1.119-1.119H133.6a1.119,1.119,0,1,0,0,2.238h24.382A1.119,1.119,0,0,0,159.106,208.1Z" transform="translate(-112.734 -130.587)" fill="#452a3b"/>
      <path id="Path_32646" data-name="Path 32646" d="M60.12,91.782A1.119,1.119,0,0,0,59,92.9V106.46a5.2,5.2,0,0,1-5.19,5.191h-.141a5.314,5.314,0,0,1-5.189-5.577,1.119,1.119,0,0,0-1.119-1.108H15V60.938a5.2,5.2,0,0,1,5.19-5.191H61.12c-.033.034-.064.069-.1.1s-.079.083-.117.125-.079.091-.119.137-.076.088-.112.132-.074.094-.111.142-.072.091-.107.138-.069.1-.1.146-.068.1-.1.144-.064.1-.1.15-.064.1-.095.15-.06.1-.089.155-.059.1-.088.155-.055.106-.082.159-.055.106-.08.159-.049.109-.074.164-.05.108-.073.163-.045.112-.067.168-.044.11-.065.167-.04.116-.059.174-.039.112-.056.168-.034.12-.051.181-.033.112-.047.169-.029.126-.044.189-.027.111-.038.167-.024.132-.036.2-.021.109-.029.164c-.011.071-.018.143-.027.214-.006.052-.014.1-.019.154-.008.08-.013.161-.018.241,0,.044-.008.088-.01.133q-.009.188-.01.379V70.87a1.119,1.119,0,1,0,2.238,0V62.433h11.51a1.119,1.119,0,0,0,1.119-1.13c-.044-4.443-3.237-7.793-7.439-7.793H20.186a7.437,7.437,0,0,0-7.428,7.429v44.027H1.118A1.119,1.119,0,0,0,0,106.1c.044,4.443,3.237,7.793,7.427,7.793H53.81a7.437,7.437,0,0,0,7.428-7.429V92.9A1.119,1.119,0,0,0,60.12,91.782ZM61.3,60.172c.005-.034.011-.068.017-.1s.016-.1.026-.143.015-.072.023-.108.02-.089.031-.133.019-.074.029-.11.023-.084.036-.125.023-.075.035-.112.026-.079.04-.118.027-.076.041-.114.029-.074.044-.111.031-.077.048-.116.03-.068.046-.1.037-.08.056-.119.03-.058.045-.087.044-.086.067-.128l.028-.048a5.2,5.2,0,0,1,.341-.528l0,0c.04-.054.081-.107.123-.159l.02-.025c.041-.051.083-.1.126-.149l.024-.027q.065-.074.134-.145l.022-.023q.071-.073.144-.143l.017-.016q.077-.073.158-.144l.006,0a5.189,5.189,0,0,1,2.459-1.191h0q.114-.021.23-.037l.014,0q.111-.015.223-.026l.034,0c.068-.006.137-.011.206-.014l.12,0,.13,0a5.186,5.186,0,0,1,5.081,4.447H61.293C61.294,60.187,61.295,60.179,61.3,60.172ZM7.426,111.651A5.186,5.186,0,0,1,2.345,107.2H46.321q.023.174.053.344c.007.038.015.076.022.114.014.075.028.151.044.225.01.045.02.088.031.133.016.067.031.134.048.2.012.046.025.092.038.138.017.063.035.126.054.188.014.047.029.093.044.139s.04.121.06.181.032.092.049.138.044.118.067.177.035.089.053.133c.025.059.05.118.076.176.018.042.037.084.056.125.028.061.058.121.088.181.018.037.036.075.055.112.036.071.074.14.113.209.014.025.027.051.041.076q.08.14.165.276l.041.062c.044.069.089.138.136.206l.066.092c.04.056.08.113.121.168l.076.1c.04.051.08.1.121.153l.082.1q.062.073.125.144l.086.095.062.068Z" transform="translate(0 0)" fill="#452a3b"/>
      <path id="Path_32647" data-name="Path 32647" d="M305.233,185.4c0-.013,0-.026,0-.039a1.111,1.111,0,0,0-.055-.3s0-.01,0-.014l0-.011a1.136,1.136,0,0,0-.062-.142l-.009-.017a1.126,1.126,0,0,0-.073-.116l-.017-.024a1.109,1.109,0,0,0-.1-.11l-.023-.022a1.119,1.119,0,0,0-.1-.087l-.014-.011a1.139,1.139,0,0,0-.127-.079l-.026-.013a1.1,1.1,0,0,0-.139-.06h0a1.141,1.141,0,0,0-.148-.039l-.034-.006a1.122,1.122,0,0,0-.155-.016c-9.362-.242-21.571,2.012-27.743,9.057-2.7,3.084-3.948,7-5.153,10.779q-.148.464-.3.928l-.012.039-1.891,6.716a1.119,1.119,0,1,0,2.154.606l1.754-6.229a34.837,34.837,0,0,1,6.2-2.109c1.21-.329,2.581-.7,4.24-1.212,3.587-1.1,10.469-5.719,13.635-9.146a76.474,76.474,0,0,1,7.793-7.449l.009-.008a1.124,1.124,0,0,0,.111-.107l.006-.007a1.108,1.108,0,0,0,.093-.122l.015-.024a1.112,1.112,0,0,0,.125-.277l.008-.028a1.133,1.133,0,0,0,.03-.149s0,0,0-.006c0-.035.007-.07.008-.105C305.234,185.424,305.233,185.412,305.233,185.4Zm-27.149,9.422c2.6-2.973,6.6-5.215,11.865-6.661a43.869,43.869,0,0,1,4.454-.966,86.548,86.548,0,0,0-9.758,5.679,89.51,89.51,0,0,0-9.72,7.43A18.364,18.364,0,0,1,278.085,194.822Zm17.307-2.621c-3.082,3.336-9.739,7.631-12.65,8.526-1.624.5-2.976.867-4.17,1.192-1.08.294-2.062.561-3.033.869.434-.416.944-.883,1.544-1.406a89.531,89.531,0,0,1,8.805-6.647c5.648-3.773,10.759-6.421,14.509-7.57C298.768,188.664,297.167,190.279,295.391,192.2Z" transform="translate(-228.901 -111.267)" fill="#452a3b"/>
    </g>
  </g>
</svg>
