<svg xmlns="http://www.w3.org/2000/svg" width="22.068" height="22.068" viewBox="0 0 22.068 22.068">
  <path id="phone-call_5_" data-name="phone-call (5)" d="M16.195,11.814l5.761,5.761L19.04,20.49a5.415,5.415,0,0,1-3.868,1.578C8.507,22.068,0,13.561,0,6.9A5.425,5.425,0,0,1,1.578,3.027L4.494.112l5.761,5.761L6.461,9.666a11.159,11.159,0,0,0,5.933,5.947Zm4.034-2.619h1.839A9.2,9.2,0,0,0,12.873,0V1.839a7.364,7.364,0,0,1,7.356,7.356Zm-3.678,0H18.39a5.522,5.522,0,0,0-5.517-5.517V5.517A3.678,3.678,0,0,1,16.551,9.195Z" transform="translate(0)" fill="#f0ede7"/>
</svg>
