<svg xmlns="http://www.w3.org/2000/svg" width="67.914" height="64" viewBox="0 0 67.914 64">
  <g id="Group_45076" data-name="Group 45076" transform="translate(-201 -1270)">
    <circle id="Ellipse_225" data-name="Ellipse 225" cx="32" cy="32" r="32" transform="translate(201 1270)" fill="#f0ede7"/>
    <g id="_01_align_center" data-name="01 align center" transform="translate(221 1277.991)">
      <path id="Path_32631" data-name="Path 32631" d="M24.838,55.106l-.813-.36C23.12,54.348,2,44.81,2,27.537V12.56a6.848,6.848,0,0,1,4.708-6.5L24.957.009,43.206,6.058a6.848,6.848,0,0,1,4.708,6.5V27.537c0,19.69-21.322,26.986-22.232,27.289Zm.119-50.283-16.8,5.569a2.277,2.277,0,0,0-1.57,2.167V27.537c0,12.613,14.784,20.794,18.474,22.638,3.682-1.481,18.258-8.26,18.258-22.638V12.56a2.277,2.277,0,0,0-1.57-2.167Z" transform="translate(0 0)" fill="#cc6e38"/>
      <path id="Path_32632" data-name="Path 32632" d="M15.884,23.9h-.076a4.3,4.3,0,0,1-3.088-1.377l-5.294-5.51,3.308-3.173,5.152,5.372L27.781,7.319l3.246,3.246L18.949,22.643A4.3,4.3,0,0,1,15.884,23.9Z" transform="translate(7.032 9.472)" fill="#cc6e38"/>
    </g>
  </g>
</svg>
