<svg id="Group_45080" data-name="Group 45080" xmlns="http://www.w3.org/2000/svg" width="71" height="71" viewBox="0 0 71 71">
  <circle id="Ellipse_6" data-name="Ellipse 6" cx="35.5" cy="35.5" r="35.5" fill="#452a3b"/>
  <g id="quality-assurance" transform="translate(-3.253 5.489)">
    <g id="Group_34947" data-name="Group 34947" transform="translate(24.979 4.144)">
      <path id="Path_32649" data-name="Path 32649" d="M101.235,179.667l-12.509-7.023-12.509,7.023V157.642h25.019Z" transform="translate(-64.572 -121.294)" fill="#cc6e38"/>
      <path id="Path_32650" data-name="Path 32650" d="M79.912,157.645v19.949l-3.7,2.076V157.645Z" transform="translate(-64.571 -121.296)" fill="#cc6e38"/>
      <path id="Path_32651" data-name="Path 32651" d="M168.173,157.645V179.67l-3.7-2.076V157.645Z" transform="translate(-131.51 -121.296)" fill="#cc6e38"/>
      <g id="Group_34945" data-name="Group 34945" transform="translate(0 0)">
        <g id="Group_34943" data-name="Group 34943">
          <path id="Path_32652" data-name="Path 32652" d="M72.89,31.17,76.323,37.8,70.1,41.588l-.246,7.424-7.384.2-3.827,6.27L55.45,53.8l-3.4-1.792L45.7,55.485l-4.065-6.27-7.146-.2L34,41.588,28.016,37.8l3.2-6.635-3.2-6.311L34,20.751l.481-7.1,7.146-.524L45.7,7.176l6.354,3.157,6.592-3.157,3.827,5.948,3.33.238,4.054.287.246,7.1,6.224,4.108Z" transform="translate(-28.016 -7.176)" fill="#f2ebda"/>
          <path id="Path_32656" data-name="Path 32656" d="M145.345,13.123,142.509,8.6l2.967-1.422,3.828,5.947Z" transform="translate(-114.851 -7.176)" fill="#e2d9c5"/>
          <path id="Path_32657" data-name="Path 32657" d="M144.462,181.414l4.121-.114-3.811,6.246-3.192-1.684Z" transform="translate(-114.147 -139.236)" fill="#e2d9c5"/>
          <path id="Path_32658" data-name="Path 32658" d="M191.246,50.592l3.433,6.635-6.224,3.784-.246,7.424-4.138.114.33-7.808,6.224-3.784-3.432-6.635,3.432-6.311L184.4,39.9l-.246-7.119,4.054.287.246,7.1,6.224,4.108Z" transform="translate(-146.372 -26.598)" fill="#e2d9c5"/>
        </g>
      </g>
      <g id="Group_34946" data-name="Group 34946" transform="translate(14.511 13.088)">
        <path id="Path_32662" data-name="Path 32662" d="M92.33,104.44H88.757a.673.673,0,0,1-.673-.673V94.726a.673.673,0,0,1,.673-.673H92.33Z" transform="translate(-88.084 -86.154)" fill="#f2ebda"/>
        <path id="Path_32663" data-name="Path 32663" d="M116.408,67.489h.1a4.187,4.187,0,0,1,4.187,4.187V77.7a4.187,4.187,0,0,1-4.187,4.187h-3.364a7.17,7.17,0,0,1-4.964-1.988.925.925,0,0,0-.641-.255h-1.883V69.254h2.405a.941.941,0,0,0,.63-.239c1.685-1.527,4.215-5.4,5.48-7.288a.839.839,0,0,1,1.162-.231,2.685,2.685,0,0,1,1.042,3.808l-.627.994A.777.777,0,0,0,116.408,67.489Z" transform="translate(-101.413 -61.355)" fill="#f2ebda"/>
        <path id="Path_32664" data-name="Path 32664" d="M109.959,79.643h-1.883V69.256h2.405a.941.941,0,0,0,.63-.239,45.08,45.08,0,0,0,5.1-6.72,3.8,3.8,0,0,0-.874-.8.838.838,0,0,0-1.162.231c-1.265,1.886-3.794,5.761-5.48,7.288a.94.94,0,0,1-.63.239H105.66V79.643h1.883a.925.925,0,0,1,.641.255,7.169,7.169,0,0,0,4.964,1.988h2.416A7.17,7.17,0,0,1,110.6,79.9a.923.923,0,0,0-.641-.255Z" transform="translate(-101.414 -61.356)" fill="#f2ebda"/>
        <path id="Path_32665" data-name="Path 32665" d="M140.289,67.49a.813.813,0,0,1-.688-1.247l.592-.938a2.685,2.685,0,0,0-1.042-3.808.838.838,0,0,0-1.162.231l-.38.568a2.529,2.529,0,0,1,.168,3.009l-.592.938a.813.813,0,0,0,.688,1.247,4.223,4.223,0,0,1,4.223,4.223v5.948a4.223,4.223,0,0,1-4.223,4.223h2.416a4.223,4.223,0,0,0,4.223-4.223V71.714A4.223,4.223,0,0,0,140.289,67.49Z" transform="translate(-125.228 -61.356)" fill="#f2ebda"/>
      </g>
    </g>
    <g id="Group_34948" data-name="Group 34948" transform="translate(24.011 3.179)">
      <path id="Path_32666" data-name="Path 32666" d="M70.946,28.15l3.189-5.861a.969.969,0,0,0-.316-1.268l-5.81-3.834-.229-6.6a.963.963,0,0,0-.9-.93l-6.9-.493L56.418,3.623a.966.966,0,0,0-1.23-.348l-6.167,2.95L43.09,3.28a.964.964,0,0,0-1.227.321l-3.8,5.561-6.679.493a.965.965,0,0,0-.894.9l-.452,6.636-5.6,3.843a.971.971,0,0,0-.316,1.234L27.1,28.15l-2.988,6.2a.964.964,0,0,0,.355,1.234l5.571,3.525.452,6.933a.969.969,0,0,0,.937.9l4.235.121V62.518a.967.967,0,0,0,1.437.843L49.132,56.6,61.17,63.361a.967.967,0,0,0,1.437-.843V47.065l4.235-.116a.967.967,0,0,0,.937-.935l.229-6.9L73.789,35.6a.967.967,0,0,0,.355-1.271ZM60.674,60.866,49.605,54.653a.956.956,0,0,0-.947,0L37.59,60.866V47.123l.469.014,3.79,5.841a.968.968,0,0,0,1.276.324l5.9-3.227,6.134,3.235a.967.967,0,0,0,1.276-.353l3.554-5.819.691-.019Zm5.882-23.133a.968.968,0,0,0-.464.792l-.215,6.515c-5.592.153-4.906.134-6.472.179a.973.973,0,0,0-.8.461l-3.353,5.5-5.79-3.053a.949.949,0,0,0-.913.007l-5.568,3.046L39.4,45.659a.965.965,0,0,0-.783-.44l-6.264-.179-.428-6.547a.969.969,0,0,0-.447-.754l-5.261-3.324,2.824-5.858a.965.965,0,0,0-.01-.858l-2.814-5.554,5.293-3.631a.969.969,0,0,0,.416-.732l.428-6.264,6.307-.464a.974.974,0,0,0,.727-.418l3.592-5.254,5.6,2.781a.962.962,0,0,0,.846.007l5.824-2.788,3.368,5.23a.965.965,0,0,0,.742.442l6.515.464.215,6.233a.972.972,0,0,0,.435.773l5.486,3.619L69,27.676a.963.963,0,0,0-.01.906l3.02,5.832Z" transform="translate(-24.011 -3.179)" fill="#452a3b"/>
      <path id="Path_32668" data-name="Path 32668" d="M100.383,63.5l.447-.708A3.659,3.659,0,0,0,99.5,57.663a1.811,1.811,0,0,0-2.5.5c-1.273,1.909-3.773,5.7-5.3,7.1H85.719a1.641,1.641,0,0,0-1.64,1.638V75.94a1.641,1.641,0,0,0,1.64,1.638h5.443a8.129,8.129,0,0,0,5.619,2.244h3.363a5.16,5.16,0,0,0,5.155-5.155v-6.02a5.163,5.163,0,0,0-4.916-5.148ZM86.012,67.193h2.314v8.453H86.012Zm17.355,7.474a3.226,3.226,0,0,1-3.223,3.223H96.781a6.2,6.2,0,0,1-4.3-1.72,1.877,1.877,0,0,0-1.312-.524h-.916V67.193H91.7a1.9,1.9,0,0,0,1.278-.49c1.757-1.592,4.258-5.417,5.561-7.358a1.7,1.7,0,0,1,.657,2.416l-.628.993a1.745,1.745,0,0,0,1.577,2.674,3.226,3.226,0,0,1,3.223,3.22Z" transform="translate(-69.568 -44.273)" fill="#452a3b"/>
    </g>
  </g>
</svg>
