<svg xmlns="http://www.w3.org/2000/svg" width="81.27" height="64.4" viewBox="0 0 81.27 64.4">
  <g id="Group_34958" data-name="Group 34958" transform="translate(-824 -1270)">
    <circle id="Ellipse_226" data-name="Ellipse 226" cx="32" cy="32" r="32" transform="translate(824 1270)" fill="#f0ede7"/>
    <path id="diet" d="M55.257,11.852A53.426,53.426,0,0,0,51.708.94,1.655,1.655,0,0,0,49.668.1,51.906,51.906,0,0,0,41.137,4.25,45.591,45.591,0,0,0,28.186,15.494,36.538,36.538,0,0,0,25.294,12.1a46.93,46.93,0,0,0-8.367-6.8A53.406,53.406,0,0,0,6.7.1,1.655,1.655,0,0,0,4.662.94,53.426,53.426,0,0,0,1.113,11.852,46.962,46.962,0,0,0,.007,22.579,32.386,32.386,0,0,0,2.343,34.392,32.393,32.393,0,0,0,9.045,44.4a46.946,46.946,0,0,0,8.367,6.8,53.423,53.423,0,0,0,10.225,5.207,1.66,1.66,0,0,0,1.1,0A53.437,53.437,0,0,0,38.958,51.2a46.961,46.961,0,0,0,8.367-6.8,32.383,32.383,0,0,0,6.7-10.006,32.377,32.377,0,0,0,2.336-11.814,46.937,46.937,0,0,0-1.106-10.726ZM5.4,33.126c-2.969-7.168-2.22-15.1-1.069-20.5a54.051,54.051,0,0,1,2.7-8.839C10.8,5.382,21.05,10.355,26.765,19.245c.016.028.034.055.052.082a26.094,26.094,0,0,1,2.12,4.05c4.122,9.953,1.212,21.375-.781,27.074L13.44,14.922a1.655,1.655,0,1,0-3.058,1.267L25.1,51.717a54.477,54.477,0,0,1-5.958-3.341c-4.629-3-10.77-8.083-13.738-15.25Zm45.567,0C48,40.293,41.859,45.375,37.23,48.376a54.347,54.347,0,0,1-5.957,3.341l16.4-39.6a1.655,1.655,0,1,0-3.058-1.267L34.331,35.682A33.051,33.051,0,0,0,32,22.11a29.123,29.123,0,0,0-1.846-3.683A41.232,41.232,0,0,1,42.768,7.132a53.752,53.752,0,0,1,6.566-3.345,54.068,54.068,0,0,1,2.7,8.841c1.151,5.4,1.9,13.33-1.069,20.5Zm0,0" transform="translate(848.5 1277.499)" fill="#cc6e38" stroke="#cc6e38" stroke-width="0.8"/>
  </g>
</svg>
