<svg xmlns="http://www.w3.org/2000/svg" width="82.918" height="64.351" viewBox="0 0 82.918 64.351">
  <g id="Group_45077" data-name="Group 45077" transform="translate(-824 -1270)">
    <circle id="Ellipse_226" data-name="Ellipse 226" cx="32" cy="32" r="32" transform="translate(824 1270)" fill="#f0ede7"/>
    <path id="hand-holding-water" d="M19.683,20.514A8.1,8.1,0,0,0,25.459,6.726L19.683.249,13.952,6.677a8.1,8.1,0,0,0,5.731,13.836ZM15.633,8.268l4.05-4.541,4.094,4.587a5.792,5.792,0,0,1,0,8.188,5.927,5.927,0,0,1-8.188,0,5.8,5.8,0,0,1,.044-8.235Zm38.045,13.76a5.82,5.82,0,0,0-8.216.384l-8.642,9.5a6.131,6.131,0,0,0-5.886-4.453H5.789A5.8,5.8,0,0,0,0,33.25V49.46a5.8,5.8,0,0,0,5.789,5.789H31.781L54.1,30.2a5.839,5.839,0,0,0-.424-8.17Zm-1.306,6.628L30.743,52.931H5.789a3.478,3.478,0,0,1-3.474-3.474V33.248a3.478,3.478,0,0,1,3.474-3.474H30.933a3.8,3.8,0,0,1,.551,7.565L18.375,39.046l.3,2.3L31.8,39.634a6.156,6.156,0,0,0,4.969-4.222l10.409-11.44A3.467,3.467,0,0,1,49.6,22.834a3.5,3.5,0,0,1,2.772,5.824Z" transform="translate(850.5 1278.252)" fill="#cc6e38" stroke="#cc6e38" stroke-width="1.7"/>
  </g>
</svg>
