<svg xmlns="http://www.w3.org/2000/svg" width="81.701" height="64.201" viewBox="0 0 81.701 64.201">
  <g id="Group_34958" data-name="Group 34958" transform="translate(-824 -1270)">
    <circle id="Ellipse_226" data-name="Ellipse 226" cx="32" cy="32" r="32" transform="translate(824 1270)" fill="#f0ede7"/>
    <g id="color_1_" data-name="color (1)" transform="translate(849 1277.5)">
      <path id="Path_32683" data-name="Path 32683" d="M28.75,1.5A27.25,27.25,0,1,0,56,28.75,27.281,27.281,0,0,0,28.75,1.5Zm0,2.6a24.488,24.488,0,0,1,8.974,1.716c0,.031-.012.058-.009.089a19.94,19.94,0,0,1,.118,2.088,22.085,22.085,0,0,1-22.06,22.06A21.97,21.97,0,0,1,4.2,26.742,24.674,24.674,0,0,1,28.75,4.1Zm0,49.31A24.666,24.666,0,0,1,4.141,29.654a24.514,24.514,0,0,0,11.633,2.99A24.683,24.683,0,0,0,40.429,7.988c0-.328-.038-.646-.054-.969A24.648,24.648,0,0,1,28.75,53.406Z" transform="translate(0 0)" fill="#cc6e38" stroke="#cc6e38" stroke-width="1.4"/>
    </g>
  </g>
</svg>
