<svg xmlns="http://www.w3.org/2000/svg" width="67.291" height="64.6" viewBox="0 0 67.291 64.6">
  <g id="Group_34959" data-name="Group 34959" transform="translate(-1179.71 -1278)">
    <circle id="Ellipse_227" data-name="Ellipse 227" cx="32" cy="32" r="32" transform="translate(1183 1278)" fill="#f0ede7"/>
    <g id="easy" transform="translate(1116.81 1285.694)">
      <path id="Path_32676" data-name="Path 32676" d="M105.538,77.422a4.192,4.192,0,0,0-.938-1.456,4.325,4.325,0,0,0-1.227-.865,4.419,4.419,0,0,0-1.38-.395,4.366,4.366,0,0,0,.224-1.374,4.291,4.291,0,0,0-4.367-4.184c-.087,0-.175.008-.262.015.013-.135.021-.272.021-.407a4.611,4.611,0,0,0-2.655-3.988,3.746,3.746,0,0,0-.529-.194l9.821-9.9.01-.01a4.677,4.677,0,0,0,1.387-3.26,4.248,4.248,0,0,0-.341-1.675,4.529,4.529,0,0,0-.969-1.437,4.33,4.33,0,0,0-1.47-.971,4.477,4.477,0,0,0-3.33,0,4.327,4.327,0,0,0-1.467.969L78.224,68.275a4.746,4.746,0,0,1-.6-.571c-.739-.607-2.017-3.412-2.786-5.926a10.555,10.555,0,0,0-6.289-6.491,7.1,7.1,0,0,0-2.4-.519,3.073,3.073,0,0,0-1.3.261,2.281,2.281,0,0,0-1.089,1.039,2.37,2.37,0,0,0-.264,1.094,3.326,3.326,0,0,0,.2,1.076c2.03,4.188,4.38,8.918,4.729,14.078,0,.318-.014.676-.044,1.1a1.093,1.093,0,0,0,.266.8,1.219,1.219,0,0,0,.806.377,1.127,1.127,0,0,0,1.122-1.022c.034-.481.049-.878.049-1.251-.6-7.388-3.417-11.259-4.926-15.125.082-.781,3.1.533,3.312.75,4.15,2.394,3.765,6.162,5.731,9.458a9.924,9.924,0,0,0,1.5,2.05,4.182,4.182,0,0,0,1.937,1.257,1.116,1.116,0,0,0,1.023-.3l20.42-20.567A2.223,2.223,0,0,1,101.2,49.2h.008a2.24,2.24,0,0,1,2.235,2.2,2.494,2.494,0,0,1-.767,1.728L89.045,66.877a1.1,1.1,0,0,0,1.562,1.549l1.06-1.069,0,0a2.448,2.448,0,0,1,.8-.532c2.541-1.036,4.044,2.209,2,3.9l-.8.807a1.1,1.1,0,0,0,1.562,1.549l.809-.816h0a3.6,3.6,0,0,1,.941-.65,2.06,2.06,0,0,1,2.305,3.392l-1.064,1.073a1.1,1.1,0,1,0,1.561,1.549,4.962,4.962,0,0,1,.827-.562,2.247,2.247,0,0,1,.856-.195,2.151,2.151,0,0,1,2.179,2.193,2.48,2.48,0,0,1-.688,1.731s-12.58,12.684-12.638,12.74a8.625,8.625,0,0,1-5.987,2.4,8.926,8.926,0,0,1-6.342-2.665c-.077-.074-5.008-4.965-5.369-5.408a9.864,9.864,0,0,1-2.231-4.7,1.2,1.2,0,0,0-1.178-.9,1.318,1.318,0,0,0-.806.461,1.089,1.089,0,0,0-.183.821,12.044,12.044,0,0,0,2.7,5.711c.309.376,5.135,5.21,5.545,5.6a11.091,11.091,0,0,0,7.865,3.279h.008a10.812,10.812,0,0,0,7.5-3.012c.068-.065,12.678-12.778,12.678-12.778a4.545,4.545,0,0,0,1-1.532,4.782,4.782,0,0,0,.331-1.749A4.57,4.57,0,0,0,105.538,77.422Z" transform="translate(0 -41.831)" fill="#cc6e38" stroke="#cc6e38" stroke-width="1.2"/>
      <path id="Path_32677" data-name="Path 32677" d="M142.432,17.674a1.1,1.1,0,0,0,1.931-1.053l-3.3-6.049a1.1,1.1,0,0,0-1.931,1.053Z" transform="translate(-67.196 -8.899)" fill="#cc6e38" stroke="#cc6e38" stroke-width="1.2"/>
      <path id="Path_32678" data-name="Path 32678" d="M269.572,18.113a1.1,1.1,0,0,0,1.492-.439l3.3-6.049a1.1,1.1,0,1,0-1.931-1.053l-3.3,6.049A1.1,1.1,0,0,0,269.572,18.113Z" transform="translate(-182.9 -8.899)" fill="#cc6e38" stroke="#cc6e38" stroke-width="1.2"/>
      <path id="Path_32679" data-name="Path 32679" d="M220.1,9.348a1.1,1.1,0,0,0,1.1-1.1V1.1a1.1,1.1,0,1,0-2.2,0V8.248A1.1,1.1,0,0,0,220.1,9.348Z" transform="translate(-138.399)" fill="#cc6e38" stroke="#cc6e38" stroke-width="1.2"/>
      <circle id="Ellipse_228" data-name="Ellipse 228" cx="1.1" cy="1.1" r="1.1" transform="translate(67.984 35.491)" fill="#cc6e38" stroke="#cc6e38" stroke-width="1.2"/>
    </g>
  </g>
</svg>
